<svg id="Layer_1" data-name="Layer 1" xmlns="http://www.w3.org/2000/svg" viewBox="0 0 208.62 74.29"><defs><style>.cls-1{fill:#ff6e00;}</style></defs><path class="cls-1" d="M156,130.19h-4.83a.62.62,0,0,0-.6.47c-.74,3.13-2.86,4.93-5.82,4.93a5.69,5.69,0,0,1-4.19-1.71c-1.42-1.54-1.74-3.29-1.74-9.41s.32-7.87,1.74-9.41a5.69,5.69,0,0,1,4.19-1.7,5.5,5.5,0,0,1,5.48,3.92c.12.32.16.5.23.73a.71.71,0,0,0,.68.52H156a.56.56,0,0,0,.44-.22.61.61,0,0,0,.14-.5c-.06-.34-.09-.45-.17-.78a11.34,11.34,0,0,0-11.64-9.2,12,12,0,0,0-8.71,3.55c-3.23,3.23-3.23,6.85-3.23,12.84v.51c0,6,0,9.6,3.23,12.84a12.08,12.08,0,0,0,8.71,3.54c6.25,0,10.79-3.91,11.85-10.2a.63.63,0,0,0-.13-.5A.62.62,0,0,0,156,130.19Z" transform="translate(-106.94 -87.61)"/><path class="cls-1" d="M211.39,139.06a.59.59,0,0,0,0-.55l-6.26-12a8.08,8.08,0,0,0,5.44-8c0-5.38-3.82-9-9.51-9H190a.62.62,0,0,0-.62.62v28.64a.62.62,0,0,0,.62.62h4.34a.62.62,0,0,0,.62-.62V127.34h4.43l5.87,11.73a.62.62,0,0,0,.55.34h5.07a.61.61,0,0,0,.49-.26ZM205,118.56c0,2.41-1.59,3.85-4.25,3.85h-5.82v-7.74h5.82C203.41,114.67,205,116.12,205,118.56Z" transform="translate(-106.94 -87.61)"/><path class="cls-1" d="M235.11,109.53H215a.61.61,0,0,0-.61.62v3.9a.61.61,0,0,0,.61.62h7.27v24.12a.62.62,0,0,0,.62.62h4.34a.62.62,0,0,0,.62-.62V114.67h7.27a.62.62,0,0,0,.62-.62v-3.9A.62.62,0,0,0,235.11,109.53Z" transform="translate(-106.94 -87.61)"/><path class="cls-1" d="M287.31,121.8H276.85a.61.61,0,0,0-.61.62v3.86a.61.61,0,0,0,.61.61h5.5v2a5.84,5.84,0,0,1-1.3,4.1,5.46,5.46,0,0,1-4.2,1.8,5.13,5.13,0,0,1-3.77-1.53c-1.23-1.34-1.55-2.87-1.57-8v-.79c0-5.51.3-7.09,1.57-8.47a5.11,5.11,0,0,1,3.77-1.57,5,5,0,0,1,5.11,3.63.65.65,0,0,0,.61.47H287a.59.59,0,0,0,.47-.22.58.58,0,0,0,.14-.49c-.61-4.55-4.5-8.53-10.79-8.53a10.87,10.87,0,0,0-8,3.24c-3,3-3,6.25-3,11.71V125c0,5.45,0,8.75,3,11.71a11.62,11.62,0,0,0,16.3-.22c1.94-2.07,2.74-4.54,2.74-8.51v-5.51A.62.62,0,0,0,287.31,121.8Z" transform="translate(-106.94 -87.61)"/><path class="cls-1" d="M312.64,112.53a11.45,11.45,0,0,0-16,0c-2.95,3-2.95,6.25-2.95,11.71V125c0,5.46,0,8.75,2.95,11.71a11.47,11.47,0,0,0,16,0c2.92-2.92,2.92-6.15,2.92-11.5V124C315.56,118.68,315.56,115.45,312.64,112.53Zm-4.18,20.66a5.42,5.42,0,0,1-7.63,0c-1.21-1.32-1.51-2.77-1.52-7.92,0-.18,0-.61,0-.8,0-5.6.28-7.11,1.53-8.47a5.42,5.42,0,0,1,7.63,0c1.25,1.36,1.52,2.87,1.52,8.47v.8C310,130.42,309.67,131.87,308.46,133.19Z" transform="translate(-106.94 -87.61)"/><path class="cls-1" d="M182.13,114.67a.62.62,0,0,0,.62-.62v-3.9a.62.62,0,0,0-.62-.62H163.82a.61.61,0,0,0-.61.62v28.64a.61.61,0,0,0,.61.62h18.31a.62.62,0,0,0,.62-.62v-3.9a.61.61,0,0,0-.62-.61H168.78V126.9h6.5a.61.61,0,0,0,.61-.62v-3.86a.61.61,0,0,0-.61-.62h-6.5v-7.13Z" transform="translate(-106.94 -87.61)"/><path class="cls-1" d="M260.55,114.67a.62.62,0,0,0,.62-.62v-3.9a.62.62,0,0,0-.62-.62h-18.3a.62.62,0,0,0-.62.62v28.64a.62.62,0,0,0,.62.62h18.3a.62.62,0,0,0,.62-.62v-3.9a.61.61,0,0,0-.62-.61H247.21V126.9h6.49a.61.61,0,0,0,.61-.62v-3.86a.61.61,0,0,0-.61-.62h-6.49v-7.13Z" transform="translate(-106.94 -87.61)"/><path class="cls-1" d="M168.68,152.65a1.71,1.71,0,0,0-.52-1.24L166,149a1.79,1.79,0,0,0-2.39-.29l-.1.06a29.26,29.26,0,0,1-18.36,6.35c-14.54,0-30.23-11.6-30.23-30.33a30.31,30.31,0,0,1,30.23-30.33,28.92,28.92,0,0,1,17.72,6.17l.09.08a1.83,1.83,0,0,0,2.25-.22l2.7-3a1.76,1.76,0,0,0,.44-1.16,1.73,1.73,0,0,0-.66-1.37l-.07-.06a38.77,38.77,0,0,0-22.47-7.3c-18.78,0-38.21,13.89-38.21,37.14s19.43,37.14,38.21,37.14a38.92,38.92,0,0,0,22.76-7.79A1.79,1.79,0,0,0,168.68,152.65Z" transform="translate(-106.94 -87.61)"/></svg>